<mxfile host="app.diagrams.net" agent="Mozilla/5.0 (Windows NT 10.0; Win64; x64) AppleWebKit/537.36 (KHTML, like Gecko) Chrome/140.0.0.0 Safari/537.36" version="25.0.3">
  <diagram id="Ht1M8jgEwFfnCIfOTk4-" name="Page-1">
    <mxGraphModel dx="868" dy="-642" grid="1" gridSize="10" guides="1" tooltips="1" connect="1" arrows="1" fold="1" page="1" pageScale="1" pageWidth="1169" pageHeight="827" math="0" shadow="0">
      <root>
        <mxCell id="0" />
        <mxCell id="1" parent="0" />
        <mxCell id="37ZLg6Zo2QXrsZJEwIlP-2" value="" style="rounded=0;whiteSpace=wrap;html=1;" vertex="1" parent="1">
          <mxGeometry x="140" y="2040" width="1650" height="970" as="geometry" />
        </mxCell>
        <mxCell id="37ZLg6Zo2QXrsZJEwIlP-4" value="" style="rounded=1;arcSize=10;dashed=0;fillColor=none;gradientColor=none;strokeWidth=2;" vertex="1" parent="1">
          <mxGeometry x="270" y="2210" width="670" height="680" as="geometry" />
        </mxCell>
        <mxCell id="37ZLg6Zo2QXrsZJEwIlP-5" value="" style="dashed=0;html=1;shape=mxgraph.aws3.virtual_private_cloud;fillColor=#F58536;gradientColor=none;dashed=0;" vertex="1" parent="1">
          <mxGeometry x="270" y="2160" width="100" height="67" as="geometry" />
        </mxCell>
        <mxCell id="37ZLg6Zo2QXrsZJEwIlP-6" value="" style="rounded=1;arcSize=10;dashed=0;fillColor=none;gradientColor=none;strokeWidth=2;" vertex="1" parent="1">
          <mxGeometry x="215" y="2125.5" width="770" height="799" as="geometry" />
        </mxCell>
        <mxCell id="37ZLg6Zo2QXrsZJEwIlP-7" value="" style="dashed=0;html=1;shape=mxgraph.aws3.cloud;fillColor=#F58536;gradientColor=none;dashed=0;" vertex="1" parent="1">
          <mxGeometry x="210" y="2070" width="110" height="77" as="geometry" />
        </mxCell>
        <mxCell id="37ZLg6Zo2QXrsZJEwIlP-9" value="" style="rounded=1;arcSize=10;dashed=1;strokeColor=#F59D56;fillColor=none;gradientColor=none;dashPattern=8 4;strokeWidth=2;" vertex="1" parent="1">
          <mxGeometry x="212.13" y="2260" width="773.75" height="270" as="geometry" />
        </mxCell>
        <mxCell id="37ZLg6Zo2QXrsZJEwIlP-10" value="" style="rounded=1;arcSize=10;dashed=1;strokeColor=#F59D56;fillColor=none;gradientColor=none;dashPattern=8 4;strokeWidth=2;" vertex="1" parent="1">
          <mxGeometry x="221.88" y="2550" width="763.75" height="290" as="geometry" />
        </mxCell>
        <mxCell id="37ZLg6Zo2QXrsZJEwIlP-11" value="" style="rounded=1;arcSize=10;dashed=0;fillColor=none;gradientColor=none;strokeWidth=2;fontFamily=Arial;fontSize=17;" vertex="1" parent="1">
          <mxGeometry x="388.13" y="2300" width="400" height="200" as="geometry" />
        </mxCell>
        <mxCell id="37ZLg6Zo2QXrsZJEwIlP-13" value="" style="rounded=1;arcSize=10;dashed=0;fillColor=none;gradientColor=none;strokeWidth=2;fontFamily=Arial;fontSize=17;" vertex="1" parent="1">
          <mxGeometry x="391.26" y="2606" width="400" height="200" as="geometry" />
        </mxCell>
        <mxCell id="37ZLg6Zo2QXrsZJEwIlP-14" value="" style="dashed=0;html=1;shape=mxgraph.aws3.permissions;fillColor=#D9A741;gradientColor=none;dashed=0;fontFamily=Arial;fontSize=17;" vertex="1" parent="1">
          <mxGeometry x="411.26" y="2586" width="36.87" height="45" as="geometry" />
        </mxCell>
        <mxCell id="37ZLg6Zo2QXrsZJEwIlP-15" value="" style="dashed=0;html=1;shape=mxgraph.aws3.permissions;fillColor=#D9A741;gradientColor=none;dashed=0;fontFamily=Arial;fontSize=17;" vertex="1" parent="1">
          <mxGeometry x="411.26" y="2275" width="36.87" height="45" as="geometry" />
        </mxCell>
        <mxCell id="37ZLg6Zo2QXrsZJEwIlP-24" value="" style="rounded=1;arcSize=10;dashed=0;fillColor=none;gradientColor=none;strokeWidth=2;" vertex="1" parent="1">
          <mxGeometry x="1460" y="2441.5" width="240" height="218.5" as="geometry" />
        </mxCell>
        <mxCell id="37ZLg6Zo2QXrsZJEwIlP-23" value="" style="outlineConnect=0;dashed=0;verticalLabelPosition=bottom;verticalAlign=top;align=center;html=1;shape=mxgraph.aws3.corporate_data_center;fillColor=#7D7C7C;gradientColor=none;" vertex="1" parent="1">
          <mxGeometry x="1660" y="2432.5" width="66.5" height="70" as="geometry" />
        </mxCell>
        <mxCell id="37ZLg6Zo2QXrsZJEwIlP-33" value="10.0.0.5&lt;div&gt;10.0.0.6&lt;/div&gt;&lt;div&gt;10.0.0.7&lt;/div&gt;" style="text;html=1;align=center;verticalAlign=middle;whiteSpace=wrap;rounded=0;fontSize=17;fontFamily=Arial;" vertex="1" parent="1">
          <mxGeometry x="468.13" y="2335" width="60" height="30" as="geometry" />
        </mxCell>
        <mxCell id="37ZLg6Zo2QXrsZJEwIlP-34" value="10.0.1.5&lt;div&gt;10.0.1.6&lt;/div&gt;&lt;div&gt;10.0.1.7&lt;/div&gt;" style="text;html=1;align=center;verticalAlign=middle;whiteSpace=wrap;rounded=0;fontSize=17;fontFamily=Arial;" vertex="1" parent="1">
          <mxGeometry x="468.13" y="2647.5" width="60" height="30" as="geometry" />
        </mxCell>
        <mxCell id="37ZLg6Zo2QXrsZJEwIlP-35" value="EC2 Instances" style="text;html=1;align=center;verticalAlign=middle;whiteSpace=wrap;rounded=0;fontSize=17;fontFamily=Arial;" vertex="1" parent="1">
          <mxGeometry x="468.13" y="2395" width="121.87" height="30" as="geometry" />
        </mxCell>
        <mxCell id="37ZLg6Zo2QXrsZJEwIlP-36" value="EC2 Instances" style="text;html=1;align=center;verticalAlign=middle;whiteSpace=wrap;rounded=0;fontSize=17;fontFamily=Arial;" vertex="1" parent="1">
          <mxGeometry x="463.13" y="2711" width="136.87" height="30" as="geometry" />
        </mxCell>
        <mxCell id="37ZLg6Zo2QXrsZJEwIlP-37" value="Subnet 1" style="text;html=1;align=center;verticalAlign=middle;whiteSpace=wrap;rounded=0;fontSize=17;fontFamily=Arial;fontStyle=1" vertex="1" parent="1">
          <mxGeometry x="543.13" y="2425" width="75" height="30" as="geometry" />
        </mxCell>
        <mxCell id="37ZLg6Zo2QXrsZJEwIlP-38" value="Subnet 2" style="text;html=1;align=center;verticalAlign=middle;whiteSpace=wrap;rounded=0;fontSize=17;fontFamily=Arial;fontStyle=1" vertex="1" parent="1">
          <mxGeometry x="535.13" y="2741" width="75" height="30" as="geometry" />
        </mxCell>
        <mxCell id="37ZLg6Zo2QXrsZJEwIlP-40" value="10.0.0.0/24" style="text;html=1;align=center;verticalAlign=middle;whiteSpace=wrap;rounded=0;fontSize=17;fontFamily=Arial;" vertex="1" parent="1">
          <mxGeometry x="550.63" y="2455" width="75" height="30" as="geometry" />
        </mxCell>
        <mxCell id="37ZLg6Zo2QXrsZJEwIlP-41" value="10.0.1.0/24" style="text;html=1;align=center;verticalAlign=middle;whiteSpace=wrap;rounded=0;fontSize=17;fontFamily=Arial;" vertex="1" parent="1">
          <mxGeometry x="535.13" y="2771" width="75" height="30" as="geometry" />
        </mxCell>
        <mxCell id="37ZLg6Zo2QXrsZJEwIlP-43" value="" style="line;strokeWidth=2;html=1;strokeColor=#99FF99;" vertex="1" parent="1">
          <mxGeometry x="716" y="2325" width="140" height="10" as="geometry" />
        </mxCell>
        <mxCell id="37ZLg6Zo2QXrsZJEwIlP-44" value="" style="line;strokeWidth=2;html=1;strokeColor=#99FF99;" vertex="1" parent="1">
          <mxGeometry x="741" y="2345" width="115" height="10" as="geometry" />
        </mxCell>
        <mxCell id="37ZLg6Zo2QXrsZJEwIlP-47" value="" style="line;strokeWidth=2;html=1;strokeColor=#99FF99;" vertex="1" parent="1">
          <mxGeometry x="753.13" y="2365" width="101.87" height="10" as="geometry" />
        </mxCell>
        <mxCell id="37ZLg6Zo2QXrsZJEwIlP-48" value="" style="line;strokeWidth=2;html=1;rotation=90;strokeColor=#99FF99;" vertex="1" parent="1">
          <mxGeometry x="771.36" y="2410.13" width="170.51" height="10" as="geometry" />
        </mxCell>
        <mxCell id="37ZLg6Zo2QXrsZJEwIlP-17" value="" style="outlineConnect=0;dashed=0;verticalLabelPosition=bottom;verticalAlign=top;align=center;html=1;shape=mxgraph.aws3.instances;fillColor=#F58534;gradientColor=none;fontFamily=Arial;fontSize=17;" vertex="1" parent="1">
          <mxGeometry x="668.13" y="2320" width="90" height="83" as="geometry" />
        </mxCell>
        <mxCell id="37ZLg6Zo2QXrsZJEwIlP-54" value="" style="line;strokeWidth=2;html=1;strokeColor=#999999;" vertex="1" parent="1">
          <mxGeometry x="716" y="2623.12" width="140" height="10" as="geometry" />
        </mxCell>
        <mxCell id="37ZLg6Zo2QXrsZJEwIlP-55" value="" style="line;strokeWidth=2;html=1;strokeColor=#999999;" vertex="1" parent="1">
          <mxGeometry x="741" y="2643.12" width="115" height="10" as="geometry" />
        </mxCell>
        <mxCell id="37ZLg6Zo2QXrsZJEwIlP-56" value="" style="line;strokeWidth=2;html=1;strokeColor=#999999;" vertex="1" parent="1">
          <mxGeometry x="753.13" y="2663.12" width="101.87" height="10" as="geometry" />
        </mxCell>
        <mxCell id="37ZLg6Zo2QXrsZJEwIlP-57" value="" style="line;strokeWidth=2;html=1;rotation=90;strokeColor=#999999;" vertex="1" parent="1">
          <mxGeometry x="798.18" y="2608.31" width="112.63" height="10" as="geometry" />
        </mxCell>
        <mxCell id="37ZLg6Zo2QXrsZJEwIlP-18" value="" style="outlineConnect=0;dashed=0;verticalLabelPosition=bottom;verticalAlign=top;align=center;html=1;shape=mxgraph.aws3.instances;fillColor=#F58534;gradientColor=none;fontFamily=Arial;fontSize=17;" vertex="1" parent="1">
          <mxGeometry x="670" y="2620" width="86.26" height="85" as="geometry" />
        </mxCell>
        <mxCell id="37ZLg6Zo2QXrsZJEwIlP-58" value="" style="line;strokeWidth=2;html=1;rotation=90;strokeColor=#99FF99;direction=south;" vertex="1" parent="1">
          <mxGeometry x="1243.93" y="2303.94" width="10" height="462.13" as="geometry" />
        </mxCell>
        <mxCell id="37ZLg6Zo2QXrsZJEwIlP-59" value="" style="line;strokeWidth=2;html=1;rotation=90;strokeColor=#99FF99;direction=south;" vertex="1" parent="1">
          <mxGeometry x="940.005" y="2457.875" width="10" height="154.25" as="geometry" />
        </mxCell>
        <mxCell id="37ZLg6Zo2QXrsZJEwIlP-20" value="" style="outlineConnect=0;dashed=0;verticalLabelPosition=bottom;verticalAlign=top;align=center;html=1;shape=mxgraph.aws3.vpn_gateway;fillColor=#F58534;gradientColor=none;" vertex="1" parent="1">
          <mxGeometry x="950.01" y="2499" width="70" height="75.25" as="geometry" />
        </mxCell>
        <mxCell id="37ZLg6Zo2QXrsZJEwIlP-21" value="" style="outlineConnect=0;dashed=0;verticalLabelPosition=bottom;verticalAlign=top;align=center;html=1;shape=mxgraph.aws3.vpn_connection;fillColor=#F58534;gradientColor=none;" vertex="1" parent="1">
          <mxGeometry x="1190" y="2499" width="88.5" height="68" as="geometry" />
        </mxCell>
        <mxCell id="37ZLg6Zo2QXrsZJEwIlP-22" value="" style="outlineConnect=0;dashed=0;verticalLabelPosition=bottom;verticalAlign=top;align=center;html=1;shape=mxgraph.aws3.customer_gateway;fillColor=#F58534;gradientColor=none;" vertex="1" parent="1">
          <mxGeometry x="1420" y="2497" width="69" height="72" as="geometry" />
        </mxCell>
        <mxCell id="37ZLg6Zo2QXrsZJEwIlP-60" value="Destination" style="rounded=0;whiteSpace=wrap;html=1;fontStyle=1;fontSize=14;labelBackgroundColor=default;fillStyle=cross-hatch;fillColor=#B3B3B3;" vertex="1" parent="1">
          <mxGeometry x="1010" y="2301" width="260" height="39" as="geometry" />
        </mxCell>
        <mxCell id="37ZLg6Zo2QXrsZJEwIlP-61" value="Target" style="rounded=0;whiteSpace=wrap;html=1;fontStyle=1;fontSize=14;labelBackgroundColor=default;fillStyle=cross-hatch;fillColor=#B3B3B3;" vertex="1" parent="1">
          <mxGeometry x="1270" y="2301" width="260" height="39" as="geometry" />
        </mxCell>
        <mxCell id="37ZLg6Zo2QXrsZJEwIlP-62" value="Destination" style="rounded=0;whiteSpace=wrap;html=1;fontStyle=1;fontSize=14;labelBackgroundColor=default;fillColor=#CCCCCC;fillStyle=cross-hatch;" vertex="1" parent="1">
          <mxGeometry x="1010" y="2707" width="260" height="39" as="geometry" />
        </mxCell>
        <mxCell id="37ZLg6Zo2QXrsZJEwIlP-63" value="Target" style="rounded=0;whiteSpace=wrap;html=1;fontStyle=1;fontSize=14;labelBackgroundColor=default;fillStyle=cross-hatch;fillColor=#B3B3B3;" vertex="1" parent="1">
          <mxGeometry x="1270" y="2707" width="260" height="39" as="geometry" />
        </mxCell>
        <mxCell id="37ZLg6Zo2QXrsZJEwIlP-64" value="10.0.0.0/16" style="rounded=0;whiteSpace=wrap;html=1;" vertex="1" parent="1">
          <mxGeometry x="1010" y="2746" width="260" height="34" as="geometry" />
        </mxCell>
        <mxCell id="37ZLg6Zo2QXrsZJEwIlP-65" value="Local" style="rounded=0;whiteSpace=wrap;html=1;" vertex="1" parent="1">
          <mxGeometry x="1270" y="2746" width="260" height="34" as="geometry" />
        </mxCell>
        <mxCell id="37ZLg6Zo2QXrsZJEwIlP-66" value="10.0.0.0/16" style="rounded=0;whiteSpace=wrap;html=1;" vertex="1" parent="1">
          <mxGeometry x="1010" y="2341" width="260" height="34" as="geometry" />
        </mxCell>
        <mxCell id="37ZLg6Zo2QXrsZJEwIlP-67" value="Local" style="rounded=0;whiteSpace=wrap;html=1;" vertex="1" parent="1">
          <mxGeometry x="1270" y="2341" width="260" height="34" as="geometry" />
        </mxCell>
        <mxCell id="37ZLg6Zo2QXrsZJEwIlP-68" value="0.0.0.0/0" style="rounded=0;whiteSpace=wrap;html=1;fontColor=#00CC00;fontStyle=1" vertex="1" parent="1">
          <mxGeometry x="1010" y="2375" width="260" height="34" as="geometry" />
        </mxCell>
        <mxCell id="37ZLg6Zo2QXrsZJEwIlP-69" value="vgw-id" style="rounded=0;whiteSpace=wrap;html=1;fontColor=#00CC00;fontStyle=1" vertex="1" parent="1">
          <mxGeometry x="1270" y="2375" width="260" height="34" as="geometry" />
        </mxCell>
        <mxCell id="37ZLg6Zo2QXrsZJEwIlP-70" value="Main Route Table" style="text;html=1;align=center;verticalAlign=middle;whiteSpace=wrap;rounded=0;fontSize=17;fontStyle=1" vertex="1" parent="1">
          <mxGeometry x="1190" y="2663.12" width="160" height="30" as="geometry" />
        </mxCell>
        <mxCell id="37ZLg6Zo2QXrsZJEwIlP-71" value="Custom Route Table" style="text;html=1;align=center;verticalAlign=middle;whiteSpace=wrap;rounded=0;fontSize=17;fontStyle=1" vertex="1" parent="1">
          <mxGeometry x="1180" y="2251.31" width="180" height="30" as="geometry" />
        </mxCell>
        <mxCell id="37ZLg6Zo2QXrsZJEwIlP-72" value="Customer Gateway" style="text;html=1;align=center;verticalAlign=middle;whiteSpace=wrap;rounded=0;fontSize=16;" vertex="1" parent="1">
          <mxGeometry x="1380" y="2582.13" width="150" height="30" as="geometry" />
        </mxCell>
        <mxCell id="37ZLg6Zo2QXrsZJEwIlP-73" value="Corporate Network" style="text;html=1;align=center;verticalAlign=middle;whiteSpace=wrap;rounded=0;fontSize=16;" vertex="1" parent="1">
          <mxGeometry x="1505" y="2617.5" width="150" height="30" as="geometry" />
        </mxCell>
        <mxCell id="37ZLg6Zo2QXrsZJEwIlP-74" value="VPN Connection" style="text;html=1;align=center;verticalAlign=middle;whiteSpace=wrap;rounded=0;fontSize=16;" vertex="1" parent="1">
          <mxGeometry x="1159.25" y="2457.87" width="150" height="30" as="geometry" />
        </mxCell>
        <mxCell id="37ZLg6Zo2QXrsZJEwIlP-76" value="Virtual Private Gateway" style="text;html=1;align=center;verticalAlign=middle;whiteSpace=wrap;rounded=0;fontSize=16;" vertex="1" parent="1">
          <mxGeometry x="910.01" y="2593.5" width="150" height="30" as="geometry" />
        </mxCell>
        <mxCell id="37ZLg6Zo2QXrsZJEwIlP-77" value="Router" style="text;html=1;align=center;verticalAlign=middle;whiteSpace=wrap;rounded=0;fontSize=16;" vertex="1" parent="1">
          <mxGeometry x="779.49" y="2582.13" width="150" height="30" as="geometry" />
        </mxCell>
        <mxCell id="37ZLg6Zo2QXrsZJEwIlP-78" value="Availability Zone A&lt;span style=&quot;font-family: monospace; font-size: 0px; text-align: start; text-wrap-mode: nowrap;&quot;&gt;%3CmxGraphModel%3E%3Croot%3E%3CmxCell%20id%3D%220%22%2F%3E%3CmxCell%20id%3D%221%22%20parent%3D%220%22%2F%3E%3CmxCell%20id%3D%222%22%20value%3D%22Virtual%20Private%20Gateway%22%20style%3D%22text%3Bhtml%3D1%3Balign%3Dcenter%3BverticalAlign%3Dmiddle%3BwhiteSpace%3Dwrap%3Brounded%3D0%3BfontSize%3D16%3B%22%20vertex%3D%221%22%20parent%3D%221%22%3E%3CmxGeometry%20x%3D%22910.01%22%20y%3D%222593.5%22%20width%3D%22150%22%20height%3D%2230%22%20as%3D%22geometry%22%2F%3E%3C%2FmxCell%3E%3C%2Froot%3E%3C%2FmxGraphModel%3E&lt;/span&gt;" style="text;html=1;align=center;verticalAlign=middle;whiteSpace=wrap;rounded=0;fontSize=16;fontColor=#FF9933;" vertex="1" parent="1">
          <mxGeometry x="521.57" y="2502.5" width="139.37" height="30" as="geometry" />
        </mxCell>
        <mxCell id="37ZLg6Zo2QXrsZJEwIlP-79" value="Availability Zone B&lt;span style=&quot;font-family: monospace; font-size: 0px; text-align: start; text-wrap-mode: nowrap;&quot;&gt;%3CmxGraphModel%3E%3Croot%3E%3CmxCell%20id%3D%220%22%2F%3E%3CmxCell%20id%3D%221%22%20parent%3D%220%22%2F%3E%3CmxCell%20id%3D%222%22%20value%3D%22Virtual%20Private%20Gateway%22%20style%3D%22text%3Bhtml%3D1%3Balign%3Dcenter%3BverticalAlign%3Dmiddle%3BwhiteSpace%3Dwrap%3Brounded%3D0%3BfontSize%3D16%3B%22%20vertex%3D%221%22%20parent%3D%221%22%3E%3CmxGeometry%20x%3D%22910.01%22%20y%3D%222593.5%22%20width%3D%22150%22%20height%3D%2230%22%20as%3D%22geometry%22%2F%3E%3C%2FmxCell%3E%3C%2Froot%3E%3C%2FmxGraphModel%3E&lt;/span&gt;" style="text;html=1;align=center;verticalAlign=middle;whiteSpace=wrap;rounded=0;fontSize=16;fontColor=#FF9933;" vertex="1" parent="1">
          <mxGeometry x="530.57" y="2810" width="136.87" height="30" as="geometry" />
        </mxCell>
        <mxCell id="37ZLg6Zo2QXrsZJEwIlP-80" value="&lt;b&gt;VPC 1&lt;/b&gt;&lt;div&gt;10.0.0.0/16&lt;/div&gt;" style="text;html=1;align=center;verticalAlign=middle;whiteSpace=wrap;rounded=0;fontSize=16;" vertex="1" parent="1">
          <mxGeometry x="569.01" y="2850" width="60" height="30" as="geometry" />
        </mxCell>
        <mxCell id="37ZLg6Zo2QXrsZJEwIlP-81" value="&lt;b&gt;Region&lt;/b&gt;" style="text;html=1;align=center;verticalAlign=middle;whiteSpace=wrap;rounded=0;fontSize=16;" vertex="1" parent="1">
          <mxGeometry x="569.01" y="2894" width="60" height="30" as="geometry" />
        </mxCell>
        <mxCell id="37ZLg6Zo2QXrsZJEwIlP-19" value="" style="outlineConnect=0;dashed=0;verticalLabelPosition=bottom;verticalAlign=top;align=center;html=1;shape=mxgraph.aws3.router;fillColor=#F58534;gradientColor=none;" vertex="1" parent="1">
          <mxGeometry x="819.99" y="2499" width="69" height="72" as="geometry" />
        </mxCell>
      </root>
    </mxGraphModel>
  </diagram>
</mxfile>
